<svg xmlns="http://www.w3.org/2000/svg" viewBox="0 0 100 100" width="100%" height="100%">
  <!-- Clean White Background (1:1 Square) -->
  <rect width="100" height="100" fill="#ffffff" />

  <!-- Natural soft shadows below elements -->
  <ellipse cx="36" cy="65" rx="22" ry="5" fill="#000" fill-opacity="0.05" />
  <ellipse cx="74" cy="76" rx="15" ry="4" fill="#000" fill-opacity="0.12" />

  <!-- 1. Fresh Sourced Ingredient (70% space) -->
  <g opacity="0.95">
    <!-- Raw Mango Kernels -->
    <ellipse cx="30" cy="52" rx="14" ry="8" fill="#D2B48C" stroke="#8B5A2B" stroke-width="0.8" transform="rotate(-15 30 52)" />
    <ellipse cx="30" cy="52" rx="11" ry="6" fill="#F5DEB3" transform="rotate(-15 30 52)" />
    <ellipse cx="45" cy="46" rx="13" ry="7.5" fill="#CD853F" stroke="#5C3A21" stroke-width="0.8" transform="rotate(20 45 46)" />
    <ellipse cx="45" cy="46" rx="10.5" ry="5.5" fill="#FFE4B5" transform="rotate(20 45 46)" />
  </g>

  <!-- 2. Premium 3D Wood Bowl of Ground Powder (30% space) -->
  <g>
    <!-- Outer Dark Wood Rim -->
    <ellipse cx="74" cy="74" rx="19" ry="14" fill="#8B5A2B" stroke="#5C3A21" stroke-width="0.8" />
    <!-- Inner Warm Wood Bowl -->
    <ellipse cx="74" cy="73.5" rx="16.5" ry="11.5" fill="#CD853F" />
    <!-- Wood grain details -->
    <ellipse cx="74" cy="73.5" rx="14" ry="9" fill="none" stroke="#8B5A2B" stroke-width="0.5" stroke-dasharray="3 7" opacity="0.3" />
    
    <!-- Heap of Ground Powder -->
    <path d="M59 73 C65 54, 83 54, 89 73 Z" fill="#B49162" />
    
    <!-- Subtle highlights on powder heap -->
    <ellipse cx="70" cy="64" rx="3" ry="1.5" fill="#ffffff" opacity="0.15" />
  </g>
</svg>
