<svg xmlns="http://www.w3.org/2000/svg" viewBox="0 0 100 100" width="100%" height="100%">
  <!-- Clean White Background (1:1 Square) -->
  <rect width="100" height="100" fill="#ffffff" />

  <!-- Natural soft shadows below elements -->
  <ellipse cx="36" cy="65" rx="22" ry="5" fill="#000" fill-opacity="0.05" />
  <ellipse cx="74" cy="76" rx="15" ry="4" fill="#000" fill-opacity="0.12" />

  <!-- 1. Fresh Sourced Ingredient (70% space) -->
  <g opacity="0.95">
    <!-- Detailed Millet Husk Mulch Straw pile -->
    <path d="M12 60 Q34 40 56 60 Q40 45 12 60 Z" fill="#CBB682" stroke="#8B7355" stroke-width="0.5" />
    <path d="M15 58 L28 48 M22 55 L35 46 M30 52 L45 44 M38 54 L50 48" stroke="#8B7355" stroke-width="1.2" opacity="0.8" />
    <path d="M18 52 L32 50 M25 48 L40 48 M32 46 L48 48" stroke="#EEDC82" stroke-width="0.8" />
  </g>

  <!-- 2. Premium 3D Wood Bowl of Ground Powder (30% space) -->
  <g>
    <!-- Outer Dark Wood Rim -->
    <ellipse cx="74" cy="74" rx="19" ry="14" fill="#8B5A2B" stroke="#5C3A21" stroke-width="0.8" />
    <!-- Inner Warm Wood Bowl -->
    <ellipse cx="74" cy="73.5" rx="16.5" ry="11.5" fill="#CD853F" />
    <!-- Wood grain details -->
    <ellipse cx="74" cy="73.5" rx="14" ry="9" fill="none" stroke="#8B5A2B" stroke-width="0.5" stroke-dasharray="3 7" opacity="0.3" />
    
    <!-- Heap of Ground Powder -->
    <path d="M59 73 C65 54, 83 54, 89 73 Z" fill="#A88D57" />
    
    <!-- Subtle highlights on powder heap -->
    <ellipse cx="70" cy="64" rx="3" ry="1.5" fill="#ffffff" opacity="0.15" />
  </g>
</svg>
