<svg xmlns="http://www.w3.org/2000/svg" viewBox="0 0 100 100" width="100%" height="100%">
  <!-- Clean White Background (1:1 Square) -->
  <rect width="100" height="100" fill="#ffffff" />

  <!-- Natural soft shadows below elements -->
  <ellipse cx="36" cy="65" rx="22" ry="5" fill="#000" fill-opacity="0.05" />
  <ellipse cx="74" cy="76" rx="15" ry="4" fill="#000" fill-opacity="0.12" />

  <!-- 1. Fresh Sourced Ingredient (70% space) -->
  <g opacity="0.95">
    <!-- Background Neem Leaves -->
    <path d="M16 48 C 22 42, 34 38, 48 38 C 42 46, 32 48, 16 48 Z" fill="#4A752C" transform="rotate(-15 16 48)" />
    <!-- Neem Seeds & Kernels -->
    <ellipse cx="32" cy="54" rx="7" ry="11" fill="#7FA043" transform="rotate(20 32 54)" />
    <ellipse cx="44" cy="48" rx="6" ry="10" fill="#90B24F" transform="rotate(-30 44 48)" />
    <ellipse cx="50" cy="56" rx="6.5" ry="10.5" fill="#7FA043" transform="rotate(10 50 56)" />
  </g>

  <!-- 2. Premium 3D Wood Bowl of Ground Powder (30% space) -->
  <g>
    <!-- Outer Dark Wood Rim -->
    <ellipse cx="74" cy="74" rx="19" ry="14" fill="#8B5A2B" stroke="#5C3A21" stroke-width="0.8" />
    <!-- Inner Warm Wood Bowl -->
    <ellipse cx="74" cy="73.5" rx="16.5" ry="11.5" fill="#CD853F" />
    <!-- Wood grain details -->
    <ellipse cx="74" cy="73.5" rx="14" ry="9" fill="none" stroke="#8B5A2B" stroke-width="0.5" stroke-dasharray="3 7" opacity="0.3" />
    
    <!-- Heap of Ground Powder -->
    <path d="M59 73 C65 54, 83 54, 89 73 Z" fill="#758A55" />
    
    <!-- Subtle highlights on powder heap -->
    <ellipse cx="70" cy="64" rx="3" ry="1.5" fill="#ffffff" opacity="0.15" />
  </g>
</svg>
