<svg xmlns="http://www.w3.org/2000/svg" viewBox="0 0 100 100" width="100%" height="100%">
  <!-- Clean White Background (1:1 Square) -->
  <rect width="100" height="100" fill="#ffffff" />

  <!-- Natural soft shadows below elements -->
  <ellipse cx="36" cy="65" rx="22" ry="5" fill="#000" fill-opacity="0.05" />
  <ellipse cx="74" cy="76" rx="15" ry="4" fill="#000" fill-opacity="0.12" />

  <!-- 1. Fresh Sourced Ingredient (70% space) -->
  <g opacity="0.95">
    <!-- Main Stem -->
    <path d="M22 68 C 24 55, 30 40, 42 22" fill="none" stroke="#2c5e3b" stroke-width="1.8" stroke-linecap="round" />
    <!-- Leaflets grouped in pinnate structure -->
    <ellipse cx="42" cy="22" rx="4" ry="7" fill="#3D8B4E" transform="rotate(28 42 22)" />
    <ellipse cx="37" cy="31" rx="5" ry="8" fill="#4fa762" transform="rotate(-30 37 31)" />
    <ellipse cx="44" cy="35" rx="5" ry="8" fill="#3D8B4E" transform="rotate(40 44 35)" />
    <ellipse cx="32" cy="44" rx="6" ry="9.5" fill="#4fa762" transform="rotate(-40 32 44)" />
    <ellipse cx="41" cy="48" rx="6" ry="9.5" fill="#3D8B4E" transform="rotate(35 41 48)" />
    <!-- Leaflet Vein Indicators -->
    <path d="M37 31 L34 32 M44 35 L47 34 M32 44 L28 45 M41 48 L45 47" stroke="#9ee3a7" stroke-width="0.5" opacity="0.6" />
  </g>

  <!-- 2. Premium 3D Wood Bowl of Ground Powder (30% space) -->
  <g>
    <!-- Outer Dark Wood Rim -->
    <ellipse cx="74" cy="74" rx="19" ry="14" fill="#8B5A2B" stroke="#5C3A21" stroke-width="0.8" />
    <!-- Inner Warm Wood Bowl -->
    <ellipse cx="74" cy="73.5" rx="16.5" ry="11.5" fill="#CD853F" />
    <!-- Wood grain details -->
    <ellipse cx="74" cy="73.5" rx="14" ry="9" fill="none" stroke="#8B5A2B" stroke-width="0.5" stroke-dasharray="3 7" opacity="0.3" />
    
    <!-- Heap of Ground Powder -->
    <path d="M59 73 C65 54, 83 54, 89 73 Z" fill="#4E8A49" />
    
    <!-- Subtle highlights on powder heap -->
    <ellipse cx="70" cy="64" rx="3" ry="1.5" fill="#ffffff" opacity="0.15" />
  </g>
</svg>
