<svg xmlns="http://www.w3.org/2000/svg" viewBox="0 0 100 100" width="100%" height="100%">
  <!-- Clean White Background (1:1 Square) -->
  <rect width="100" height="100" fill="#ffffff" />

  <!-- Natural soft shadows below elements -->
  <ellipse cx="36" cy="65" rx="22" ry="5" fill="#000" fill-opacity="0.05" />
  <ellipse cx="74" cy="76" rx="15" ry="4" fill="#000" fill-opacity="0.12" />

  <!-- 1. Fresh Sourced Ingredient (70% space) -->
  <g opacity="0.95">
    <!-- Broad Spinach Leaf -->
    <path d="M20 62 C22 45, 28 32, 42 26 C52 32, 55 45, 52 56 C48 64, 38 68, 20 62 Z" fill="#2D7A3F" stroke="#1d592a" stroke-width="0.8" />
    <!-- Leaf Veins -->
    <path d="M20 62 Q34 47 42 26" stroke="#5db772" stroke-width="1.5" fill="none" opacity="0.8" />
    <path d="M28 53 Q36 49 46 48" stroke="#5db772" stroke-width="0.8" fill="none" opacity="0.6" />
    <path d="M32 45 Q38 41 48 37" stroke="#5db772" stroke-width="0.8" fill="none" opacity="0.6" />
    <path d="M36 36 Q40 34 46 30" stroke="#5db772" stroke-width="0.8" fill="none" opacity="0.6" />
  </g>

  <!-- 2. Premium 3D Wood Bowl of Ground Powder (30% space) -->
  <g>
    <!-- Outer Dark Wood Rim -->
    <ellipse cx="74" cy="74" rx="19" ry="14" fill="#8B5A2B" stroke="#5C3A21" stroke-width="0.8" />
    <!-- Inner Warm Wood Bowl -->
    <ellipse cx="74" cy="73.5" rx="16.5" ry="11.5" fill="#CD853F" />
    <!-- Wood grain details -->
    <ellipse cx="74" cy="73.5" rx="14" ry="9" fill="none" stroke="#8B5A2B" stroke-width="0.5" stroke-dasharray="3 7" opacity="0.3" />
    
    <!-- Heap of Ground Powder -->
    <path d="M59 73 C65 54, 83 54, 89 73 Z" fill="#3A6B41" />
    
    <!-- Subtle highlights on powder heap -->
    <ellipse cx="70" cy="64" rx="3" ry="1.5" fill="#ffffff" opacity="0.15" />
  </g>
</svg>
