<svg xmlns="http://www.w3.org/2000/svg" viewBox="0 0 100 100" width="100%" height="100%">
  <!-- Clean White Background (1:1 Square) -->
  <rect width="100" height="100" fill="#ffffff" />

  <!-- Natural soft shadows below elements -->
  <ellipse cx="36" cy="65" rx="22" ry="5" fill="#000" fill-opacity="0.05" />
  <ellipse cx="74" cy="76" rx="15" ry="4" fill="#000" fill-opacity="0.12" />

  <!-- 1. Fresh Sourced Ingredient (70% space) -->
  <g opacity="0.95">
    <!-- Cracked Tamarind Pod -->
    <path d="M16 40 C 25 36, 35 48, 48 44 C 44 54, 32 50, 16 40 Z" fill="#8B5A2B" stroke="#5C3A21" stroke-width="1" />
    <!-- Roasted Seeds inside -->
    <rect x="22" y="42" width="8" height="8" rx="2" fill="#3D1D0F" transform="rotate(12 22 42)" />
    <rect x="34" y="44" width="7.5" height="7.5" rx="2" fill="#4A2711" transform="rotate(-8 34 44)" />
    <rect x="44" y="41" width="8" height="8" rx="2" fill="#3D1D0F" transform="rotate(25 44 41)" />
  </g>

  <!-- 2. Premium 3D Wood Bowl of Ground Powder (30% space) -->
  <g>
    <!-- Outer Dark Wood Rim -->
    <ellipse cx="74" cy="74" rx="19" ry="14" fill="#8B5A2B" stroke="#5C3A21" stroke-width="0.8" />
    <!-- Inner Warm Wood Bowl -->
    <ellipse cx="74" cy="73.5" rx="16.5" ry="11.5" fill="#CD853F" />
    <!-- Wood grain details -->
    <ellipse cx="74" cy="73.5" rx="14" ry="9" fill="none" stroke="#8B5A2B" stroke-width="0.5" stroke-dasharray="3 7" opacity="0.3" />
    
    <!-- Heap of Ground Powder -->
    <path d="M59 73 C65 54, 83 54, 89 73 Z" fill="#7B5034" />
    
    <!-- Subtle highlights on powder heap -->
    <ellipse cx="70" cy="64" rx="3" ry="1.5" fill="#ffffff" opacity="0.15" />
  </g>
</svg>
